<svg width="25" height="24" viewBox="0 0 25 24" fill="none" xmlns="http://www.w3.org/2000/svg">
<path d="M13.2945 17.0816L13.314 17.064L13.3316 17.0445C13.448 16.9152 13.5563 16.7657 13.6342 16.566C13.704 16.3964 13.75 16.2033 13.75 16C13.75 15.7941 13.7028 15.5988 13.6315 15.4277C13.5591 15.2538 13.4581 15.096 13.3316 14.9555L13.314 14.936L13.2945 14.9184C13.154 14.7919 12.9962 14.6909 12.8223 14.6185C12.4592 14.4672 12.0408 14.4672 11.6777 14.6185C11.5038 14.6909 11.346 14.7919 11.2055 14.9184L11.186 14.936L11.1684 14.9555C11.0419 15.096 10.9409 15.2538 10.8685 15.4277C10.7972 15.5988 10.75 15.7941 10.75 16C10.75 16.2033 10.796 16.3964 10.8658 16.566C10.9437 16.7657 11.052 16.9152 11.1684 17.0445L11.186 17.064L11.2055 17.0816C11.346 17.2081 11.5038 17.3091 11.6777 17.3815C11.8488 17.4528 12.0441 17.5 12.25 17.5C12.4559 17.5 12.6512 17.4528 12.8223 17.3815C12.9962 17.3091 13.154 17.2081 13.2945 17.0816ZM2.75 12C2.75 6.76614 7.01614 2.5 12.25 2.5C17.4839 2.5 21.75 6.76614 21.75 12C21.75 17.2339 17.4839 21.5 12.25 21.5C7.01614 21.5 2.75 17.2339 2.75 12ZM12.25 6.75C11.5639 6.75 11 7.31386 11 8V13C11 13.6861 11.5639 14.25 12.25 14.25C12.9361 14.25 13.5 13.6861 13.5 13V8C13.5 7.31386 12.9361 6.75 12.25 6.75Z" fill="#F49C11" stroke="#F49C11"/>
</svg>
