<svg width="25" height="24" viewBox="0 0 25 24" fill="none" xmlns="http://www.w3.org/2000/svg">
<path d="M18.8608 18.86H18.1008C17.3008 18.86 16.5408 19.17 15.9808 19.73L14.2708 21.42C13.4908 22.19 12.2209 22.19 11.4409 21.42L9.73083 19.73C9.17083 19.17 8.40084 18.86 7.61084 18.86H6.86084C5.20084 18.86 3.86084 17.53 3.86084 15.89V4.97998C3.86084 3.33998 5.20084 2.01001 6.86084 2.01001H18.8608C20.5208 2.01001 21.8608 3.33998 21.8608 4.97998V15.89C21.8608 17.52 20.5208 18.86 18.8608 18.86Z" stroke="white" stroke-width="1.5" stroke-miterlimit="10" stroke-linecap="round" stroke-linejoin="round"/>
<path d="M12.8608 10C14.1477 10 15.1909 8.95681 15.1909 7.66998C15.1909 6.38316 14.1477 5.34003 12.8608 5.34003C11.574 5.34003 10.5308 6.38316 10.5308 7.66998C10.5308 8.95681 11.574 10 12.8608 10Z" stroke="white" stroke-width="1.5" stroke-linecap="round" stroke-linejoin="round"/>
<path d="M16.8608 15.66C16.8608 13.86 15.0708 12.4 12.8608 12.4C10.6508 12.4 8.86084 13.86 8.86084 15.66" stroke="white" stroke-width="1.5" stroke-linecap="round" stroke-linejoin="round"/>
<path d="M11.3008 17L12.2908 17.99L14.4208 16.02" stroke="white" stroke-width="1.5" stroke-linecap="round" stroke-linejoin="round"/>
</svg>
